<svg fill="none" viewBox="250 250 180 294">
  <path stroke="#fff" stroke-opacity=".28" d="m306.709 535.108-51.518-57.86 106.617-59.713 20.526 74.351-75.625 43.222Z"/>
  <path stroke="#fff" stroke-opacity=".28" d="m361.808 417.535 36.105-52.009-3.729-57.946 29.809-51.342"/>
  <path fill="#fff" d="m423.308 250 .11 3.125c.068 1.912 1.53 3.445 3.353 3.515l3.067.117-3.067.118c-1.823.07-3.285 1.603-3.353 3.515l-.11 3.125-.111-3.125c-.067-1.912-1.53-3.445-3.353-3.515l-3.067-.118 3.067-.117c1.823-.07 3.286-1.603 3.353-3.515l.111-3.125Z"/>
  <path fill="#fff" d="m426.529 250.905-1.394 2.764c-.853 1.692-.317 3.786 1.228 4.803l2.6 1.71-2.712-1.507c-1.612-.895-3.61-.334-4.58 1.286l-1.585 2.648 1.394-2.764c.853-1.691.317-3.786-1.228-4.802l-2.6-1.71 2.712 1.506c1.612.896 3.61.335 4.58-1.285l1.585-2.649Z"/>
  <path fill="#fff" d="m428.888 253.379-2.526 1.662c-1.545 1.018-2.079 3.113-1.226 4.803l1.437 2.844-1.631-2.726c-.969-1.621-2.966-2.183-4.579-1.288l-2.636 1.462 2.526-1.663c1.545-1.017 2.079-3.112 1.226-4.803l-1.437-2.844 1.631 2.727c.969 1.62 2.966 2.182 4.579 1.288l2.636-1.462Zm-34.716 50.68.059 1.682c.037 1.03.824 1.855 1.806 1.893l1.651.063-1.651.064c-.982.037-1.769.863-1.806 1.892l-.059 1.683-.06-1.683c-.036-1.029-.824-1.855-1.805-1.892l-1.652-.064 1.652-.063c.981-.038 1.769-.863 1.805-1.893l.06-1.682Z"/>
  <path fill="#fff" d="m395.906 304.546-.75 1.489c-.46.91-.171 2.038.661 2.586l1.4.92-1.46-.811c-.868-.482-1.944-.18-2.466.692l-.854 1.427.751-1.489c.459-.91.171-2.038-.662-2.586l-1.4-.92 1.461.811c.868.482 1.943.18 2.466-.693l.853-1.426Z"/>
  <path fill="#fff" d="m397.176 305.878-1.359.895c-.832.548-1.12 1.676-.66 2.587l.773 1.531-.878-1.468c-.522-.873-1.597-1.175-2.466-.694l-1.419.788 1.36-.896c.832-.547 1.12-1.676.66-2.586l-.773-1.531.877 1.468c.522.873 1.598 1.175 2.466.693l1.419-.787Zm-90.412 216.496.179 5.047c.109 3.089 2.472 5.566 5.417 5.678l4.954.19-4.954.19c-2.945.113-5.308 2.59-5.417 5.678l-.179 5.048-.178-5.048c-.109-3.088-2.472-5.565-5.417-5.678l-4.954-.19 4.954-.19c2.945-.112 5.308-2.589 5.417-5.678l.178-5.047Z"/>
  <path fill="#fff" d="m311.969 523.836-2.252 4.465c-1.378 2.732-.513 6.116 1.984 7.758l4.199 2.762-4.38-2.433c-2.605-1.447-5.832-.541-7.399 2.076l-2.561 4.279 2.252-4.466c1.378-2.731.513-6.115-1.984-7.757l-4.199-2.762 4.38 2.433c2.604 1.446 5.832.54 7.399-2.077l2.561-4.278Z"/>
  <path fill="#fff" d="m315.778 527.831-4.079 2.686c-2.495 1.644-3.359 5.028-1.98 7.759l2.32 4.594-2.634-4.404c-1.565-2.618-4.792-3.526-7.397-2.081l-4.258 2.362 4.08-2.686c2.495-1.643 3.359-5.028 1.98-7.759l-2.32-4.594 2.634 4.405c1.565 2.618 4.792 3.525 7.397 2.08l4.257-2.362Zm46.244-115.654.093 2.403c.057 1.471 1.295 2.65 2.838 2.704l2.595.091-2.595.09c-1.543.054-2.781 1.233-2.838 2.704l-.093 2.404-.094-2.404c-.057-1.471-1.294-2.65-2.837-2.704l-2.595-.09 2.595-.091c1.543-.054 2.78-1.233 2.837-2.704l.094-2.403Z"/>
  <path fill="#fff" d="m364.748 412.873-1.18 2.126c-.722 1.301-.268 2.913 1.039 3.694l2.2 1.316-2.294-1.159c-1.364-.689-3.055-.257-3.876.989l-1.341 2.037 1.18-2.126c.721-1.301.268-2.912-1.04-3.694l-2.2-1.316 2.295 1.159c1.364.689 3.055.258 3.875-.989l1.342-2.037Z"/>
  <path fill="#fff" d="m366.743 414.776-2.136 1.279c-1.308.782-1.76 2.394-1.038 3.694l1.216 2.188-1.38-2.097c-.82-1.247-2.51-1.679-3.875-.991l-2.23 1.125 2.137-1.279c1.307-.783 1.76-2.395 1.037-3.695l-1.215-2.188 1.38 2.098c.82 1.246 2.51 1.678 3.874.99l2.23-1.124Zm15.875 71.212.085 2.404c.052 1.47 1.177 2.65 2.579 2.703l2.359.091-2.359.09c-1.402.054-2.527 1.233-2.579 2.704l-.085 2.404-.085-2.404c-.052-1.471-1.177-2.65-2.579-2.704l-2.359-.09 2.359-.091c1.402-.053 2.527-1.233 2.579-2.703l.085-2.404Z"/>
  <path fill="#fff" d="m385.096 486.684-1.072 2.126c-.656 1.301-.244 2.913.944 3.695l2 1.315-2.086-1.159c-1.24-.689-2.777-.257-3.523.989l-1.219 2.037 1.072-2.126c.656-1.301.244-2.912-.945-3.694l-1.999-1.315 2.086 1.158c1.24.689 2.776.258 3.523-.989l1.219-2.037Z"/>
  <path fill="#fff" d="m386.91 488.587-1.942 1.279c-1.189.782-1.6 2.394-.943 3.694l1.105 2.188-1.255-2.097c-.745-1.247-2.282-1.679-3.522-.991l-2.027 1.125 1.942-1.279c1.188-.783 1.6-2.394.943-3.695l-1.105-2.188 1.254 2.098c.746 1.246 2.282 1.679 3.523.991l2.027-1.125Zm-131.887-17.154.085 2.404c.052 1.471 1.178 2.65 2.58 2.704l2.359.09-2.359.091c-1.402.054-2.528 1.233-2.58 2.704l-.085 2.403-.085-2.403c-.052-1.471-1.177-2.65-2.579-2.704l-2.359-.091 2.359-.09c1.402-.054 2.527-1.233 2.579-2.704l.085-2.404Z"/>
  <path fill="#fff" d="m257.502 472.13-1.073 2.126c-.656 1.301-.244 2.912.945 3.694l2 1.316-2.086-1.159c-1.24-.689-2.777-.258-3.523.989l-1.22 2.037 1.073-2.126c.656-1.301.244-2.913-.945-3.694l-2-1.316 2.086 1.159c1.24.689 2.777.257 3.523-.989l1.22-2.037Z"/>
  <path fill="#fff" d="m259.316 474.032-1.943 1.279c-1.188.783-1.599 2.395-.943 3.695l1.105 2.188-1.254-2.097c-.746-1.247-2.282-1.679-3.523-.991l-2.027 1.124 1.943-1.279c1.188-.782 1.599-2.394.943-3.694l-1.105-2.188 1.254 2.097c.745 1.247 2.282 1.679 3.522.991l2.028-1.125Z"/>
</svg>