<svg fill="none" viewBox="110 255 245 180">
  <g filter="url(#a)">
    <ellipse cx="257.166" cy="281.501" fill="#F4F6FE" fill-opacity=".01" rx="33.954" ry="15.083" transform="rotate(114.65 257.166 281.501)"/>
  </g>
  <ellipse cx="226.272" cy="341.057" fill="url(#a)" rx="77.432" ry="73.96" transform="rotate(-35.185 226.272 341.057)"/>
  <path fill="#5B24FF" fill-opacity=".8" d="M191.491 405.1c-1.84 2.49-4.887-1.722-8.86-4.658-3.972-2.937-7.366-3.485-5.526-5.975 1.84-2.489 6.552-2.127 10.524.809 3.973 2.936 5.702 7.335 3.862 9.824Z"/>
  <path fill="#5922FF" d="M285.664 324.708c-1.172-6.058-2.618-11.19.297-11.754 2.916-.564 6.229 3.89 7.401 9.948 1.172 6.058-.242 11.427-3.157 11.991-2.916.564-3.369-4.127-4.541-10.185Z"/>
  <path fill="#2B0585" fill-opacity=".64" d="M280.919 382.038c-5.131 9.48-22.972 15.69-25.623 14.256-2.65-1.435 8.068-9.508 13.199-18.988 5.131-9.479 2.732-16.775 5.383-15.34 2.65 1.434 12.172 10.593 7.041 20.072Z"/>
  <path fill="#420593" d="M175.911 292.803c-4.934 5.161-8.541 16.861-12.063 13.493-3.522-3.367 1.027-8.114 5.961-13.275 4.935-5.161 10.527-12.274 14.049-8.907 3.522 3.368-3.012 3.529-7.947 8.689Zm32.815-7.957c-1.956 1.32-4.466 1.087-3.496 2.525.97 1.438 3.343 1.534 5.3.214 1.956-1.32 2.756-3.556 1.785-4.994-.97-1.438-1.632.935-3.589 2.255Z"/>
  <path fill="#845EF7" d="M197.229 328.611c-5.329 10.241-2.801 22.31-10.328 18.393-7.528-3.916-9.311-15.393-3.983-25.634 5.329-10.241 15.751-15.368 23.278-11.452 7.528 3.917-3.639 8.452-8.967 18.693Z"/>
  <path fill="#5E1EEF" d="M269.515 317.085c-4.326 8.22-7.805-8.623-19.754-14.912-11.949-6.288-27.843.359-23.517-7.861 4.326-8.221 20.487-15.286 32.436-8.997 11.949 6.289 15.161 23.549 10.835 31.77Z"/>
  <path stroke="url(#b)" stroke-width="2" d="M209.563 312.644c32.719-21.758 64.923-37.502 90.521-45.382 12.806-3.942 23.902-5.899 32.557-5.687 8.688.213 14.668 2.598 17.627 7.048 2.96 4.45 2.847 10.888-.317 18.982-3.151 8.063-9.246 17.54-17.834 27.824-17.166 20.56-44.14 44.17-76.858 65.928-32.718 21.758-64.922 37.502-90.52 45.382-12.806 3.942-23.902 5.899-32.556 5.687-8.689-.213-14.669-2.599-17.628-7.049-2.96-4.45-2.846-10.887.317-18.982 3.151-8.063 9.247-17.539 17.834-27.824 17.167-20.559 44.139-44.169 76.857-65.927Z"/>
  <path stroke="url(#c)" stroke-width="2" d="M211.447 316.464c31.023-20.631 61.415-35.776 85.454-43.596 12.026-3.912 22.407-5.973 30.455-5.999 8.096-.027 13.545 1.999 16.144 5.907 2.599 3.908 2.359 9.716-.796 17.171-3.137 7.412-9.052 16.188-17.31 25.766-16.508 19.145-42.228 41.315-73.251 61.946-31.022 20.63-61.414 35.775-85.453 43.595-12.026 3.912-22.406 5.973-30.455 5.999-8.095.027-13.544-1.998-16.143-5.906-2.599-3.908-2.36-9.717.796-17.172 3.136-7.412 9.051-16.188 17.31-25.766 16.508-19.144 42.227-41.314 73.249-61.945Z"/>
  <g filter="url(#d)">
    <path stroke="url(#e)" stroke-width="4" d="M184.955 410.963c-35.114-21.519-45.459-68.818-22.851-105.71 22.609-36.891 69.449-49.144 104.563-27.626 35.114 21.519 45.459 68.818 22.851 105.709-22.608 36.892-69.449 49.146-104.563 27.627Z"/>
  </g>
  <path fill="#845EF7" fill-opacity=".84" d="M228.676 368.054c-7.029 15.978-22.158 25.452-32.819 19.714-17.817-12.53 1.939-14.306 8.968-30.284 7.028-15.977 5.107-32.204 16.304-27.279 11.197 4.926 14.576 21.871 7.547 37.849Z"/>
  <ellipse cx=".716" cy="2.865" fill="#fff" rx=".716" ry="2.865" transform="scale(-1 1) rotate(6.404 -3204.089 -1627.087)"/>
  <ellipse cx="239.944" cy="365.622" fill="#fff" rx="1.791" ry="2.507" transform="rotate(-6.404 239.944 365.622)"/>
  <ellipse cx="227.473" cy="318.73" fill="#fff" rx="1.791" ry="2.507" transform="rotate(-6.404 227.473 318.73)"/>
  <defs>
    <linearGradient id="b" x1="209.01" x2="255.813" y1="311.811" y2="382.19" gradientUnits="userSpaceOnUse">
      <stop offset=".091" stop-color="#fff" stop-opacity="0"/>
      <stop offset=".654" stop-color="#FC85CF"/>
    </linearGradient>
    <linearGradient id="c" x1="210.894" x2="252.698" y1="315.631" y2="378.492" gradientUnits="userSpaceOnUse">
      <stop offset=".091" stop-color="#fff" stop-opacity="0"/>
      <stop offset=".654" stop-color="#FC85CF"/>
    </linearGradient>
    <linearGradient id="e" x1="267.712" x2="241.55" y1="275.922" y2="309.392" gradientUnits="userSpaceOnUse">
      <stop stop-color="#C8ABDF"/>
      <stop offset="1" stop-color="#fff" stop-opacity="0"/>
    </linearGradient>
    <radialGradient id="a" cx="0" cy="0" r="1" gradientTransform="rotate(103.92 -20.287 259.047) scale(105.599 110.556)" gradientUnits="userSpaceOnUse">
      <stop stop-color="#540AFE"/>
      <stop offset=".5" stop-color="#6905AD"/>
    </radialGradient>
    <filter id="d" width="173.583" height="176.741" x="139.02" y="255.924" color-interpolation-filters="sRGB" filterUnits="userSpaceOnUse">
      <feFlood flood-opacity="0" result="BackgroundImageFix"/>
      <feBlend in="SourceGraphic" in2="BackgroundImageFix" result="shape"/>
      <feGaussianBlur result="effect1_foregroundBlur_192_134" stdDeviation="4.55"/>
    </filter>
  </defs>
</svg>