<svg viewBox="243 243 82 81" fill="none">
  <ellipse cx="284.235" cy="283.582" fill="#F8F8FF" rx="40.501" ry="39.847"/>
  <path fill="#fff" d="M275.342 305.567c-3.23 2.452-3.537-4.659-7.901-10.406-4.363-5.747-11.13-7.953-7.9-10.405 3.23-2.453 9.386.218 13.749 5.965 4.363 5.747 5.282 12.393 2.052 14.846Z"/>
  <path fill="#fff" fill-opacity=".76" d="M302.805 253.547c.16 4.052-13.694-2.245-20.904-1.96-7.209.284-19.063 7.958-19.223 3.906-.16-4.053 11.724-10.959 18.934-11.243 7.21-.285 21.033 5.245 21.193 9.297Z"/>
  <path fill="#fff" d="M313.219 283.757c-1.737 3.568-1.796-2.327-4.715-3.748-2.92-1.42-11.722-1.29-9.986-4.859 1.737-3.568 9.639-1.848 12.558-.427 2.92 1.421 3.879 5.465 2.143 9.034Z"/>
  <ellipse cx="286.195" cy="293.38" fill="#fff" rx=".653" ry="1.306"/>
  <ellipse cx="304.485" cy="289.461" fill="#fff" rx=".653" ry="1.306"/>
  <ellipse cx="312.324" cy="265.944" fill="#fff" rx=".653" ry="1.306"/>
  <path fill="#fff" d="M289.461 275.743c0 6.133-3.802-2.613-8.492-2.613-4.69 0-9.146 6.133-9.146 0s4.456-8.492 9.146-8.492 8.492 4.972 8.492 11.105Z"/>
</svg>