<svg viewBox="600 1000 512 245">
    <path d="M714.84 1184.03H680.9l-27.67-51.56v-24.78h1.15c5.87 0 8.14-.74 12.03-2.35 3.88-1.61 6.77-4.03 8.66-7.25 1.94-3.22 2.91-7.22 2.91-12 0-4.83-.97-8.9-2.91-12.22-1.89-3.31-4.8-5.82-8.73-7.52-3.89-1.76-8.79-2.63-14.71-2.63H630.9v120.31h-30.76v-145.45h57.39c10.98 0 20.36 1.96 28.12 5.89 7.82 3.88 13.76 9.4 17.83 16.55.02.03.03.06.05.09-15.81 12.9-25.91 32.54-25.91 54.54 0 .93.02 1.85.06 2.77.14 3.74.57 7.4 1.28 10.97 3.75 18.97 15.13 35.2 30.81 45.36l5.07 9.28ZM913.8 1038.58v145.45h-26.56l-63.28-91.55h-1.06v91.55h-30.76v-13.56c16-12.9 26.24-32.66 26.24-54.82s-10.24-41.92-26.24-54.81v-22.26h26.99l62.78 91.47h1.28v-91.47h30.61ZM989.196 1038.58v145.45h26.564l63.28-91.55h1.07v91.55h30.75v-145.45h-26.99l-62.78 91.47h-1.28v-91.47h-30.614ZM966.895 1038.58v145.45h-30.753v-145.45h30.753ZM608.064 1222.62h1.743l7.64 18.41h-1.897l-1.974-4.89h-9.614l-2.051 4.89h-1.769l7.922-18.41Zm.795 1.87-4.23 10.09h8.332l-4.102-10.09Zm22.627 6.24h3.589c.888 0 1.606-.11 2.154-.33.564-.23 1-.51 1.308-.84.308-.33.513-.68.615-1.06.119-.38.179-.73.179-1.04s-.06-.66-.179-1.04a2.55 2.55 0 0 0-.615-1.07c-.308-.33-.744-.6-1.308-.83-.547-.23-1.265-.34-2.154-.34h-3.589v6.55Zm-1.692-8.11h4.769c.239 0 .564.01.974.03.41.02.854.07 1.333.15.478.09.965.23 1.461.42.495.19.94.47 1.333.83.392.37.718.83.974 1.38.256.55.385 1.23.385 2.03 0 .88-.154 1.61-.462 2.18a4.264 4.264 0 0 1-1.128 1.41c-.445.34-.941.6-1.487.78-.547.17-1.069.29-1.564.36l5.281 8.84h-1.923l-5.102-8.74h-3.153v8.74h-1.692v-18.41Zm29.115 1.56h-6.204v-1.56h14.101v1.56h-6.204v16.85h-1.692v-16.85Zm20.44-1.56h1.692v18.41h-1.692v-18.41Zm16.889 15c.445.78 1.017 1.36 1.718 1.75.718.38 1.529.57 2.436.57.564 0 1.094-.09 1.59-.26.496-.18.923-.42 1.282-.73.376-.31.667-.68.872-1.12.222-.45.333-.95.333-1.51 0-.64-.137-1.17-.41-1.58a2.947 2.947 0 0 0-1.051-1.02 7.572 7.572 0 0 0-1.513-.7c-.547-.19-1.119-.38-1.718-.57-.581-.19-1.154-.41-1.718-.65a5.724 5.724 0 0 1-1.487-.94 4.395 4.395 0 0 1-1.077-1.48c-.256-.59-.385-1.32-.385-2.18 0-.82.154-1.54.461-2.16.324-.64.752-1.17 1.282-1.59.547-.43 1.17-.75 1.872-.96a7.326 7.326 0 0 1 2.205-.34c.991 0 1.906.19 2.743.55.855.35 1.59.94 2.205 1.77l-1.461 1.06c-.427-.6-.932-1.05-1.513-1.35-.564-.31-1.24-.47-2.025-.47-.547 0-1.068.08-1.564.24-.496.14-.932.35-1.308.65-.359.28-.65.63-.872 1.06-.222.44-.333.95-.333 1.54 0 .92.231 1.63.692 2.13.462.49 1.034.88 1.718 1.17.701.28 1.453.53 2.256.75.82.21 1.573.5 2.256.86.701.37 1.282.88 1.743 1.54.462.64.692 1.53.692 2.67 0 .84-.154 1.57-.462 2.21a4.844 4.844 0 0 1-1.256 1.64c-.513.44-1.111.76-1.795.99s-1.393.34-2.128.34c-1.196 0-2.299-.21-3.307-.63-1.009-.43-1.872-1.15-2.589-2.15l1.615-1.1Zm29.065-15h1.743l7.64 18.41h-1.897l-1.974-4.89h-9.614l-2.051 4.89h-1.769l7.922-18.41Zm.794 1.87-4.23 10.09h8.332l-4.102-10.09Zm20.936-1.87h2.179l11.05 16.12h.051v-16.12h1.692v18.41h-2.179l-11.05-16.12h-.051v16.12h-1.692v-18.41Zm30.183 15c.445.78 1.018 1.36 1.718 1.75.718.38 1.53.57 2.436.57.564 0 1.095-.09 1.59-.26.496-.18.923-.42 1.282-.73.377-.31.667-.68.872-1.12.223-.45.333-.95.333-1.51 0-.64-.136-1.17-.41-1.58a2.947 2.947 0 0 0-1.051-1.02 7.547 7.547 0 0 0-1.513-.7c-.546-.19-1.119-.38-1.718-.57-.581-.19-1.154-.41-1.718-.65a5.74 5.74 0 0 1-1.487-.94 4.422 4.422 0 0 1-1.077-1.48c-.256-.59-.385-1.32-.385-2.18 0-.82.154-1.54.462-2.16.325-.64.752-1.17 1.282-1.59a5.604 5.604 0 0 1 1.872-.96 7.326 7.326 0 0 1 2.205-.34c.992 0 1.906.19 2.743.55.855.35 1.59.94 2.205 1.77l-1.461 1.06c-.427-.6-.931-1.05-1.513-1.35-.564-.31-1.239-.47-2.025-.47-.546 0-1.068.08-1.564.24-.495.14-.931.35-1.308.65-.359.28-.649.63-.872 1.06-.222.44-.333.95-.333 1.54 0 .92.231 1.63.692 2.13.462.49 1.034.88 1.718 1.17.701.28 1.453.53 2.256.75.82.21 1.573.5 2.256.86.701.37 1.282.88 1.743 1.54.462.64.692 1.53.692 2.67 0 .84-.154 1.57-.462 2.21a4.83 4.83 0 0 1-1.256 1.64c-.513.44-1.11.76-1.795.99-.683.23-1.392.34-2.128.34-1.196 0-2.299-.21-3.307-.63-1.008-.43-1.872-1.15-2.589-2.15l1.615-1.1Zm39.673-15h5.615c1.573 0 2.906.2 3.999.6 1.095.38 2 .88 2.718 1.48.736.61 1.308 1.28 1.718 2.03.428.73.736 1.43.923 2.11a9.4 9.4 0 0 1 .385 1.84c.051.54.077.92.077 1.15 0 .22-.026.61-.077 1.17a9.538 9.538 0 0 1-.385 1.82c-.187.67-.495 1.38-.923 2.13-.41.73-.982 1.39-1.718 2-.718.61-1.623 1.11-2.718 1.51-1.094.38-2.427.57-3.999.57h-5.615v-18.41Zm1.692 16.85h3.487c1.197 0 2.316-.15 3.359-.44 1.043-.31 1.948-.78 2.718-1.41.769-.62 1.377-1.41 1.82-2.36.445-.97.667-2.12.667-3.43 0-1.32-.222-2.46-.667-3.41-.444-.97-1.051-1.77-1.82-2.39-.769-.63-1.674-1.09-2.718-1.38a11.723 11.723 0 0 0-3.359-.47h-3.487v15.29Zm27.285-16.85h11.101v1.56h-9.409v6.55h8.819v1.56h-8.819v7.18h9.819v1.56h-11.511v-18.41Zm22.376 0h1.82l5.845 16.15 5.897-16.15h1.795l-6.897 18.41h-1.692l-6.768-18.41Zm27.504 0h11.101v1.56h-9.409v6.55h8.819v1.56h-8.819v7.18h9.819v1.56h-11.511v-18.41Zm24.939 0h1.692v16.85h8.46v1.56h-10.153v-18.41Zm21.382 9.21c0-1.41.231-2.7.692-3.88.462-1.18 1.102-2.19 1.923-3.04.82-.87 1.804-1.54 2.948-2.03 1.163-.48 2.436-.73 3.82-.73s2.65.25 3.794.73c1.163.49 2.154 1.16 2.974 2.03.82.85 1.461 1.86 1.923 3.04.462 1.18.692 2.47.692 3.88 0 1.4-.231 2.7-.692 3.9-.462 1.17-1.102 2.2-1.923 3.06-.82.85-1.811 1.52-2.974 2.01-1.145.46-2.41.7-3.794.7s-2.657-.24-3.82-.7a8.92 8.92 0 0 1-2.948-2.01c-.82-.86-1.461-1.89-1.923-3.06-.462-1.2-.692-2.5-.692-3.9Zm1.693 0c0 1.14.179 2.21.538 3.19a7.65 7.65 0 0 0 1.538 2.58c.667.73 1.47 1.3 2.41 1.71.957.42 2.025.63 3.205.63s2.239-.21 3.179-.63a6.97 6.97 0 0 0 2.436-1.71 7.634 7.634 0 0 0 1.538-2.58c.359-.98.538-2.05.538-3.19 0-1.15-.179-2.21-.538-3.2s-.872-1.85-1.538-2.58a7.092 7.092 0 0 0-2.436-1.71c-.94-.42-2-.63-3.179-.63s-2.247.21-3.205.63c-.94.41-1.743.99-2.41 1.71-.667.73-1.179 1.59-1.538 2.58s-.538 2.05-.538 3.2Zm30.611-9.21h5.23c.632 0 1.291.08 1.974.24.701.13 1.333.39 1.897.75.581.36 1.051.87 1.41 1.51.376.62.564 1.41.564 2.36 0 .84-.154 1.56-.461 2.16a4.142 4.142 0 0 1-1.205 1.51 5.17 5.17 0 0 1-1.743.86 7.27 7.27 0 0 1-2.051.28h-3.923v8.74h-1.692v-18.41Zm1.692 8.11h3.846c.478 0 .949-.05 1.41-.15.462-.12.872-.31 1.231-.55.359-.26.65-.6.872-1.01.222-.42.333-.93.333-1.54 0-.59-.119-1.09-.359-1.5a2.83 2.83 0 0 0-.897-1.02c-.359-.28-.778-.47-1.256-.6a5.88 5.88 0 0 0-1.436-.18h-3.743v6.55Zm22.769-8.11h5.236c.631 0 1.292.08 1.972.24.7.13 1.331.39 1.893.75a4.05 4.05 0 0 1 1.41 1.51c.375.62.572 1.41.572 2.36 0 .84-.158 1.56-.463 2.16a4.19 4.19 0 0 1-1.203 1.51c-.503.38-1.085.67-1.745.86-.651.19-1.331.28-2.051.28h-3.925v8.74h-1.696v-18.41Zm1.696 8.11h3.846c.473 0 .947-.05 1.41-.15a4.09 4.09 0 0 0 1.233-.55c.355-.26.651-.6.868-1.01.227-.42.335-.93.335-1.54 0-.59-.118-1.09-.355-1.5a2.887 2.887 0 0 0-.897-1.02 3.53 3.53 0 0 0-1.262-.6 5.832 5.832 0 0 0-1.43-.18h-3.747v6.55Zm22.768-8.11h11.103v1.56h-9.407v6.55h8.816v1.56h-8.816v7.18h9.821v1.56h-11.517v-18.41Zm37.836 11.36c0 .99-.108 1.94-.325 2.84-.227.9-.602 1.7-1.134 2.39-.513.69-1.193 1.25-2.051 1.66-.838.42-1.873.63-3.096.63-1.233 0-2.278-.21-3.136-.63a5.733 5.733 0 0 1-2.051-1.66 6.525 6.525 0 0 1-1.095-2.39c-.227-.9-.335-1.85-.335-2.84v-11.36h1.686v10.92c0 .66.059 1.36.187 2.11.118.74.345 1.44.69 2.08.355.64.848 1.17 1.489 1.58.641.42 1.499.63 2.564.63 1.055 0 1.903-.21 2.534-.63a4.2 4.2 0 0 0 1.489-1.58c.355-.64.592-1.34.72-2.08.118-.75.178-1.45.178-2.11v-10.92h1.686v11.36Zm16.063-3.25h3.589c.897 0 1.607-.11 2.159-.33.562-.23.996-.51 1.302-.84.316-.33.513-.68.621-1.06.118-.38.178-.73.178-1.04s-.059-.66-.178-1.04a2.534 2.534 0 0 0-.621-1.07c-.306-.33-.74-.6-1.302-.83-.552-.23-1.262-.34-2.159-.34h-3.589v6.55Zm-1.686-8.11h4.763c.247 0 .572.01.976.03.414.02.858.07 1.331.15.483.09.966.23 1.469.42.493.19.937.47 1.331.83.394.37.72.83.976 1.38.256.55.385 1.23.385 2.03 0 .88-.158 1.61-.463 2.18a4.318 4.318 0 0 1-1.134 1.41c-.444.34-.937.6-1.479.78-.552.17-1.075.29-1.568.36l5.285 8.84h-1.923l-5.108-8.74h-3.155v8.74h-1.686v-18.41Zm25.421 15c.454.78 1.026 1.36 1.726 1.75.71.38 1.528.57 2.436.57.562 0 1.095-.09 1.588-.26.493-.18.917-.42 1.282-.73.375-.31.661-.68.868-1.12.227-.45.335-.95.335-1.51 0-.64-.138-1.17-.414-1.58a2.937 2.937 0 0 0-1.045-1.02 7.4 7.4 0 0 0-1.519-.7c-.542-.19-1.114-.38-1.716-.57-.582-.19-1.154-.41-1.716-.65a5.803 5.803 0 0 1-1.489-.94c-.444-.39-.799-.89-1.075-1.48-.256-.59-.385-1.32-.385-2.18 0-.82.158-1.54.463-2.16a4.69 4.69 0 0 1 1.282-1.59 5.557 5.557 0 0 1 1.874-.96c.7-.22 1.43-.34 2.199-.34.996 0 1.913.19 2.741.55.858.35 1.597.94 2.209 1.77l-1.459 1.06a4.24 4.24 0 0 0-1.519-1.35c-.562-.31-1.233-.47-2.022-.47-.542 0-1.065.08-1.568.24a3.64 3.64 0 0 0-1.302.65c-.365.28-.651.63-.878 1.06-.217.44-.325.95-.325 1.54 0 .92.227 1.63.69 2.13.463.49 1.035.88 1.716 1.17.7.28 1.45.53 2.258.75.818.21 1.568.5 2.258.86.7.37 1.282.88 1.736 1.54.463.64.7 1.53.7 2.67 0 .84-.158 1.57-.464 2.21-.306.65-.73 1.19-1.262 1.64-.513.44-1.105.76-1.795.99-.68.23-1.39.34-2.12.34-1.203 0-2.298-.21-3.313-.63-1.006-.43-1.874-1.15-2.584-2.15l1.607-1.1Z" fill="#EEE"/>
    <path d="M732.624 971.51h30.753v88.284h-30.753z" style="fill:red" transform="rotate(-90 748 1015.652)"/>
</svg>